<svg xmlns="http://www.w3.org/2000/svg" viewBox="0 0 179.88 240.18"><defs><style>.cls-1{fill:#d1f1ff;}.cls-2{fill:#ff5958;}.cls-3{fill:#ade6ff;}.cls-4{fill:#00f2c3;}.cls-5{fill:#32c1ff;}.cls-6{fill:#aaa7fc;}</style></defs><g id="Capa_2" data-name="Capa 2"><g id="Capa_1-2" data-name="Capa 1"><path class="cls-1" d="M13.35,11h0C13.2,11.57,9.58,26.67,30,50.78S66.1,74,66.67,74c.15-.55,3.77-15.66-16.65-39.75S13.92,11,13.35,11Z"/><path class="cls-2" d="M80,0A13,13,0,1,0,93,13,13,13,0,0,0,80,0Z"/><path class="cls-3" d="M136,115A43,43,0,0,0,93,72v86A43,43,0,0,0,136,115Z"/><path class="cls-4" d="M179.88,0H137c0,23.54,19.13,42.65,42.87,43Z"/><rect class="cls-2" x="137.01" y="71" width="42.87" height="87"/><path class="cls-5" d="M179.88,240.18V219.67c-8-14.73-23.09-24.67-40.37-24.67C115,195,95,214.91,93.16,240.18Z"/><path class="cls-6" d="M93.13,240.18V158H43.58C19.68,158,.29,177.66,0,202.07v38.11Z"/></g></g></svg>