<svg width="128" height="120" viewBox="0 0 128 120" fill="none" xmlns="http://www.w3.org/2000/svg">
<path d="M127.265 101.604V62.4846C127.265 57.5305 125.271 52.7879 121.707 49.314L76.4556 5.21082C69.3266 -1.73694 57.9383 -1.73694 50.8093 5.21082L5.55821 49.314C1.99371 52.7879 0 57.5305 0 62.4846V101.604C0 111.753 8.21649 120 18.3965 120H108.899C119.048 120 127.265 111.784 127.265 101.604Z" fill="#7C01FF"/>
<path fill-rule="evenodd" clip-rule="evenodd" d="M26.0088 76.5303V65.0815H17.7621V95.984H25.9484V84.4447C26.0088 81.9072 27.7608 80.6989 29.3618 80.6989C30.993 80.6989 32.2316 81.4541 32.3222 83.9311V96.0142H40.4178V83.9009C40.4178 76.5605 36.2492 73.6907 31.8389 73.6907C29.241 73.6907 27.5494 74.5365 26.0088 76.5303ZM68.7527 74.2043H61.1101L60.657 76.5303C59.5091 74.748 57.3644 73.6907 54.253 73.6907C47.9094 73.6907 43.6501 78.6448 43.6501 85.1093C43.6501 91.4831 47.2448 96.0444 53.6488 96.4371C56.0957 96.558 58.9956 95.8028 60.8685 93.6882L61.231 96.0444H68.7527V74.2043ZM56.1561 89.8821C53.7093 89.8821 51.776 88.1602 51.776 85.1093C51.776 82.0583 53.7395 80.3062 56.1561 80.276C59.0258 80.276 60.657 82.1791 60.657 85.1093C60.657 87.6769 58.905 89.8821 56.1561 89.8821ZM81.6815 76.0469C82.8898 74.597 84.944 73.6907 87.7533 73.6907C94.1271 73.6907 98.3562 78.4334 98.3562 85.1093C98.3562 91.9966 94.7614 96.0444 88.3574 96.4371C85.9106 96.558 83.0107 95.8028 81.1378 93.6882L80.7753 96.0444H73.5255V65.0815H81.6513V76.0469H81.6815ZM81.5003 85.3509C81.5003 87.6467 83.1315 89.9123 85.8804 89.9123C88.3272 89.9123 90.2605 88.1904 90.2605 85.1395C90.2605 82.0885 88.3272 80.3062 85.8804 80.3062C83.0107 80.3062 81.5003 82.6926 81.5003 85.3509ZM110.167 74.5368V96.0446H101.981V74.5368H110.167Z" fill="white"/>
<path d="M106.21 24.4827C109.58 24.4827 112.312 21.7508 112.312 18.3808C112.312 15.0107 109.58 12.2788 106.21 12.2788C102.84 12.2788 100.108 15.0107 100.108 18.3808C100.108 21.7508 102.84 24.4827 106.21 24.4827Z" fill="#FF5958"/>
</svg>
