<svg xmlns="http://www.w3.org/2000/svg" viewBox="0 0 146.02 206.04"><defs><style>.cls-1{fill:#32c1ff;}.cls-2{fill:#b2e7ff;}.cls-3{fill:#7c01ff;}.cls-4{fill:#ff5958;}.cls-5{fill:#00f2c3;}.cls-6{fill:#aaa7fc;}</style></defs><g id="Capa_2" data-name="Capa 2"><g id="Capa_1-2" data-name="Capa 1"><path class="cls-1" d="M96.52,61C69.73,61,48,82.53,48,109h97C145.05,82.53,123.32,61,96.52,61Z"/><path class="cls-2" d="M48.52,109.06h0c0,4,0,29.42,24.38,59.35,29.29,35.94,51.81,34.67,52.64,34.61.21-.82,5.41-23.35-23.9-59.29S49.35,109,48.52,109.06C48,109.06,47.69,109.14,48.52,109.06Z"/><path class="cls-3" d="M130.52,109a14.5,14.5,0,1,0,14.5,14.5A14.5,14.5,0,0,0,130.52,109Z"/><path class="cls-4" d="M48,0V61h52.14C125.5,61,146,41,146,16.2V0Z"/><path class="cls-5" d="M0,0V48H0A48,48,0,0,0,48,0Z"/><path class="cls-6" d="M0,61V206H3.1c24.64,0,44.63-20.45,44.92-45.78V61Z"/></g></g></svg>